<svg t="1713182281385" class="icon" viewBox="0 0 1024 1024" version="1.1" xmlns="http://www.w3.org/2000/svg" p-id="3622"
  width="15" height="15">
  <path
    d="M551.31 83.89c-65 0-118.15 53.17-118.15 118.15v295.39c0 65 53.17 118.15 118.15 118.15s118.15-53.17 118.15-118.15V202c0-64.94-53.16-118.11-118.15-118.11z m59.08 413.54a59.08 59.08 0 1 1-118.15 0V202a59.08 59.08 0 0 1 118.15 0z"
    fill="#2CB699" p-id="3623"></path>
  <path
    d="M846.7 497.43h-59.08c0 130-106.34 236.31-236.31 236.31S315 627.4 315 497.43h-59.07c0 152.86 116.68 279.14 265.84 293.91V911h59.08V791.34C730 776.57 846.7 650.29 846.7 497.43z"
    fill="#666666" p-id="3624"></path>
  <path d="M307.23 785.14m-154.97 0a154.97 154.97 0 1 0 309.94 0 154.97 154.97 0 1 0-309.94 0Z" fill="#FBC13F"
    p-id="3625"></path>
</svg>